<svg xmlns="http://www.w3.org/2000/svg" xmlns:xlink="http://www.w3.org/1999/xlink" viewBox="0 0 1969.85 1403.74"><defs><style>.cls-1,.cls-3{fill:#fff;}.cls-2{fill:url(#Degradado_sin_nombre_2222);}.cls-3,.cls-4,.cls-5,.cls-6{fill-rule:evenodd;}.cls-4{fill:url(#linear-gradient);}.cls-5{fill:#a11258;}.cls-6{fill:#ef4762;}</style><linearGradient id="Degradado_sin_nombre_2222" y1="701.87" x2="1969.85" y2="701.87" gradientUnits="userSpaceOnUse"><stop offset="0" stop-color="#ff005b"/><stop offset="1" stop-color="#ff9d6f"/></linearGradient><linearGradient id="linear-gradient" x1="452.02" y1="778.83" x2="667.84" y2="778.83" gradientUnits="userSpaceOnUse"><stop offset="0" stop-color="#fff"/><stop offset="1" stop-color="#bcbec0"/></linearGradient></defs><g id="Layer_2" data-name="Layer 2"><g id="ARTBOARD3"><g id="OT-LOGO-2022-WR"><path class="cls-1" d="M1257.26,1321.22,1167,1403.74h235v-248A866.09,866.09,0,0,1,1287.83,1292C1278,1301.81,1267.75,1311.63,1257.26,1321.22Z"/><path class="cls-1" d="M236.45,634.88c13-100,55.89-188,130.82-262.89,93-93,203.54-136.86,331.63-136.86S937.54,280.75,1028.78,372c1.42,1.42,2.73,2.88,4.12,4.31V84C933.38,28.37,822.53,0,698.9,0,504.14,0,339.2,70.19,204.09,207.05,83.34,327.8,14.57,470.43,0,634.88Z"/><path class="cls-2" d="M1166.87,0V701.87h-1.22c0,126.14-42.65,235.22-132.75,327.32-1.4,1.43-2.7,2.89-4.12,4.31C937.54,1124.75,827,1168.61,698.9,1168.61s-240.39-43.86-331.63-135.11c-75-75-117.89-164.17-130.84-264.64H0c14.45,165.53,83.22,307,204.09,427.83,136.86,136.86,300,207,494.81,207,123.63,0,234.48-28.37,334-84q70.72-39.57,134-97.37,13.59-12.42,26.85-25.65c133-129.66,202.85-286.87,208.28-471.48V235.13h449.61L1969.85,0Z"/><path class="cls-3" d="M542.62,798.23a74.29,74.29,0,0,1-124.21-48.54l.06-.07q-9.5-114,65.62-203.42Q558.94,457,672.5,446.74c36.33-3.18,70.81,0,103.27,9.78a337.22,337.22,0,0,1,58.83-37.2q-77.08-36.21-167.09-28.13Q531.2,403.49,441.37,510.35q-90,107.25-78.49,243.88,11.31,136.86,118,226.44,106.43,89.3,243.21,76.64,136.47-12.51,226.48-119.7,89.82-107,78.08-243.4-7.85-91.85-58.57-162.31c-5.85,21-14.51,42.28-26,64.19q24.21,46.53,29,102.86,9.66,113.64-65.23,202.81-75,89.41-188.86,100h0a76,76,0,0,1-71-116.42c30.46-47.82,60.87-95.45,60.87-95.45L626.76,721S584.55,759.79,542.62,798.23Z"/><path class="cls-4" d="M626.76,721s-42.21,38.78-84.14,77.22a74.33,74.33,0,0,1-77.21,14.42A76.57,76.57,0,0,1,452,805.84h0c106.46,80.25,188.63-18,215.82-50.36Z"/><path class="cls-5" d="M678.21,557.9l-31.67,1.55a19.51,19.51,0,0,0-14,6.94l-40.72,48.53a13.48,13.48,0,0,0,7.29,21.8l31.22,7.21C638.87,620.41,653.45,591.33,678.21,557.9Z"/><path class="cls-6" d="M859.64,689.54q4.71-5.28,9.5-11c83.35-99.33,109.2-186.09,89.52-269.77l-1-.06c-85.46-4.48-166.1,36.12-249.12,135.07-83.36,99.34-74.45,163.76-74.45,163.76l86.7,72.75s22.68-.84,58.41-22l19.47,45.85a13.49,13.49,0,0,0,22.74,3.39L862.12,759a19.49,19.49,0,0,0,4.41-15Zm-12-148.4a40.53,40.53,0,1,0,5,57.1A40.55,40.55,0,0,0,847.6,541.14Z"/><path class="cls-5" d="M855.24,532,958.66,408.77l-1,0c-85.46-4.48-166.1,36.12-249.12,135.07-83.36,99.33-74.45,163.76-74.45,163.76l43.35,36.37L787.86,612.34A52.41,52.41,0,1,1,855.24,532Z"/></g></g></g></svg>